<?xml version="1.0" encoding="utf-8"?>
<!-- Generator: Adobe Illustrator 26.0.1, SVG Export Plug-In . SVG Version: 6.00 Build 0)  -->
<svg version="1.0" id="Layer_1" xmlns="http://www.w3.org/2000/svg" xmlns:xlink="http://www.w3.org/1999/xlink" x="0px" y="0px"
	 width="84px" height="42px" viewBox="0 0 84 42" style="enable-background:new 0 0 84 42;" xml:space="preserve">
<style type="text/css">
	.st0{fill:#FFFFFF;}
</style>
<path class="st0" d="M70.11,35.99c0-10.29,0-20.5,0-30.83c-1.41,0-2.76,0.05-4.1-0.02c-0.76-0.04-1.2,0.24-1.61,0.85
	c-2.07,3.07-4.18,6.11-6.28,9.16c-1.18,1.71-2.36,3.43-3.6,5.22c-0.26-0.33-0.44-0.55-0.6-0.78c-3.12-4.53-6.24-9.05-9.34-13.58
	c-0.38-0.56-0.76-0.86-1.5-0.85c-6.12,0.03-12.24,0-18.37,0.02c-2.23,0.01-4.25,0.69-6.07,1.99c-4.91,3.51-4.91,10.36,0.1,13.73
	c1.34,0.9,2.95,1.42,4.46,2.07c1.44,0.62,3,1.02,4.34,1.8c2.13,1.23,1.97,4-0.24,5.12c-0.73,0.37-1.59,0.56-2.41,0.62
	c-2.5,0.2-4.65-0.8-6.68-2.12c-0.35-0.23-0.71-0.45-1.12-0.72c-1.07,1.82-2.07,3.52-3.19,5.41c1.62,0.89,3.08,1.91,4.69,2.54
	c4.13,1.62,8.29,1.93,12.24-0.56c4.9-3.08,5.97-9.77,2.21-13.8c-1.69-1.82-3.86-2.84-6.19-3.62c-1.52-0.51-3.01-1.14-4.43-1.88
	c-1.09-0.57-1.39-1.63-1.14-2.84c0.37-1.8,1.74-2.86,3.87-2.87c4.51-0.02,9.02,0.02,13.53-0.03c0.86-0.01,1.32,0.31,1.78,0.97
	c3.57,5.24,7.17,10.45,10.77,15.67c1.06,1.55,2.14,3.08,3.27,4.7c3.11-4.51,6.13-8.89,9.15-13.27c0.09,0.03,0.19,0.06,0.28,0.09
	c0,5.94,0,11.89,0,17.83C66.07,35.99,68.07,35.99,70.11,35.99z M39.02,19.58c-0.06,0.03-0.13,0.06-0.19,0.1c0,5.41,0,10.82,0,16.38
	c1.8,0,3.55-0.04,5.29,0.02c0.83,0.03,0.98-0.31,0.97-1.03c-0.03-1.98,0-3.96-0.02-5.94c0-0.35-0.03-0.77-0.22-1.05
	C42.92,25.23,40.97,22.41,39.02,19.58z"/>
</svg>
